<svg xmlns="http://www.w3.org/2000/svg" version="1.1" xmlns:xlink="http://www.w3.org/1999/xlink" width="2000" height="1500" viewBox="0 0 2000 1500"><rect width="2000" height="1500" fill="#444444"></rect><g transform="matrix(0.75,0,0,0.75,246.5092719325936,489.95922154017853)"><svg viewBox="0 0 184 63" data-background-color="#444444" preserveAspectRatio="xMidYMid meet" height="684" width="2000" xmlns="http://www.w3.org/2000/svg" xmlns:xlink="http://www.w3.org/1999/xlink"><g id="tight-bounds" transform="matrix(1,0,0,1,0.4281959762685119,0.4348324424342138)"><svg viewBox="0 0 183.14360804746295 62.13033511513158" height="62.13033511513158" width="183.14360804746295"><g><svg viewBox="0 0 183.14360804746295 62.13033511513158" height="62.13033511513158" width="183.14360804746295"><g><svg viewBox="0 0 183.14360804746295 62.13033511513158" height="62.13033511513158" width="183.14360804746295"><g id="textblocktransform"><svg viewBox="0 0 183.14360804746295 62.13033511513158" height="62.13033511513158" width="183.14360804746295" id="textblock"><g><svg viewBox="0 0 183.14360804746295 62.13033511513158" height="62.13033511513158" width="183.14360804746295"><g><svg><g></g><g></g></svg></g><g><svg><g><svg></svg></g><g></g></svg></g><g id="text-0"><svg viewBox="0 0 183.14360804746295 62.13033511513158" height="62.13033511513158" width="183.14360804746295"><g transform="matrix(1,0,0,1,0,3.552713678800501e-15)"><svg width="105.47021484374999" viewBox="-0.24 -37.667999944875 65.17999999999999 38.397999944875" height="62.13033511513157" data-palette-color="#ffffff"><path d="M28.17-18.7L28.37-18.7Q28.47-18.36 28.76-17.97 29.05-17.58 29.05-17.38L29.05-17.38Q28.66-16.46 28.47-15.94 28.27-15.43 27.83-15.04L27.83-15.04Q27.83-14.89 27.54-14.4 27.25-13.92 26.88-13.35 26.51-12.79 26.15-12.28 25.78-11.77 25.68-11.57L25.68-11.57Q25.44-11.18 25.29-10.82 25.15-10.45 24.95-10.11L24.95-10.11Q24.51-9.33 24.05-8.64 23.58-7.96 23.19-7.13L23.19-7.13Q22.95-6.88 22.75-6.59 22.56-6.3 22.31-6.05L22.31-6.05Q21.73-4.98 20.97-4.05 20.21-3.13 19.58-2L19.58-2Q20.12-1.46 20.12-0.63L20.12-0.63Q20.12-0.2 19.87-0.17 19.63-0.15 19.43-0.05L19.43-0.05Q18.95 0.29 18.55 0.34 18.16 0.39 17.92 0.39L17.92 0.39Q17.38 0.39 16.75 0.37 16.11 0.34 15.67 0.44L15.67 0.44Q15.53 0.49 15.33 0.61 15.14 0.73 15.04 0.73L15.04 0.73Q14.65 0.73 14.48 0.61 14.31 0.49 14.01 0.39L14.01 0.39Q13.62-0.05 13.31-0.54 12.99-1.03 12.65-1.51L12.65-1.51Q12.35-1.86 12.01-2.12 11.67-2.39 11.38-2.78L11.38-2.78Q10.6-3.91 9.79-4.93 8.98-5.96 8.15-6.98L8.15-6.98Q7.76-7.52 7.3-8.01 6.84-8.5 6.45-8.98L6.45-8.98Q6.05-9.52 5.71-10.11 5.37-10.69 4.98-11.23L4.98-11.23Q4.69-11.72 4.15-12.43 3.61-13.13 3.03-13.87 2.44-14.6 1.83-15.26 1.22-15.92 0.78-16.26L0.78-16.26Q0.78-16.6 0.59-16.75 0.39-16.89 0.15-17.09L0.15-17.09Q0.05-17.33-0.1-17.55-0.24-17.77-0.24-18.07L-0.24-18.07Q-0.24-18.41-0.1-18.7L-0.1-18.7Q0-18.9 0.02-19.07 0.05-19.24 0.15-19.43L0.15-19.43Q0.39-20.07 0.85-20.56 1.32-21.04 1.56-21.68L1.56-21.68Q1.61-21.88 1.61-22.05 1.61-22.22 1.71-22.41L1.71-22.41Q1.86-22.75 2.15-23.02 2.44-23.29 2.69-23.63L2.69-23.63Q2.93-24.07 3.17-24.51 3.42-24.95 3.66-25.39L3.66-25.39Q4.35-26.51 5.18-27.56 6.01-28.61 6.74-29.64L6.74-29.64Q7.42-30.62 8.01-31.57 8.59-32.52 9.28-33.5L9.28-33.5Q9.62-33.98 10.06-34.59 10.5-35.21 10.96-35.79 11.43-36.38 11.91-36.89 12.4-37.4 12.89-37.65L12.89-37.65Q13.72-37.74 13.96-37.38 14.21-37.01 14.65-37.01L14.65-37.01Q15.33-36.87 15.58-36.57 15.82-36.28 16.06-36.04L16.06-36.04Q16.7-36.04 17.14-35.79 17.58-35.55 18.02-35.06L18.02-35.06Q17.82-34.52 17.5-34.08 17.19-33.64 16.94-33.15L16.94-33.15Q16.55-33.01 16.38-32.67 16.21-32.32 15.87-32.08L15.87-32.08Q15.33-31.25 14.79-30.44 14.26-29.64 13.72-28.91L13.72-28.91Q13.48-28.61 13.18-28.44 12.89-28.27 12.65-27.93L12.65-27.93Q12.55-27.78 12.5-27.61 12.45-27.44 12.35-27.29L12.35-27.29Q11.77-26.37 11.04-25.49 10.3-24.61 9.77-23.63L9.77-23.63Q9.52-23.29 9.38-22.92 9.23-22.56 9.03-22.22L9.03-22.22Q8.84-21.88 8.47-21.36 8.11-20.85 7.74-20.31 7.37-19.78 7.1-19.24 6.84-18.7 6.84-18.36L6.84-18.36Q6.88-18.12 7.47-17.38 8.06-16.65 8.79-15.82 9.52-14.99 10.18-14.23 10.84-13.48 10.99-13.33L10.99-13.33Q11.08-13.09 11.72-12.28 12.35-11.47 13.16-10.52 13.96-9.57 14.75-8.69 15.53-7.81 15.82-7.42L15.82-7.42 16.21-6.79Q16.31-6.84 16.72-7.47 17.14-8.11 17.58-8.89 18.02-9.67 18.38-10.35 18.75-11.04 18.85-11.23L18.85-11.23Q18.99-11.38 19.34-12.01 19.68-12.65 20.09-13.38 20.51-14.11 20.83-14.75 21.14-15.38 21.19-15.58L21.19-15.58 20.61-15.58Q19.82-15.58 19.07-15.5 18.31-15.43 17.53-15.19L17.53-15.19Q17.19-15.23 16.94-15.38 16.7-15.53 16.36-15.67L16.36-15.67Q16.21-16.16 16.24-16.36 16.26-16.55 16.21-16.65L16.21-16.65Q16.16-16.85 16.09-16.94 16.02-17.04 16.02-17.24L16.02-17.24Q16.02-17.58 15.92-17.8 15.82-18.02 15.72-18.31L15.72-18.31Q15.72-18.51 15.75-18.7 15.77-18.9 15.67-19.04L15.67-19.04Q15.77-19.92 15.53-20.31L15.53-20.31Q15.53-21 15.72-21.19 15.92-21.39 16.02-21.78L16.02-21.78Q16.46-21.63 16.77-21.85 17.09-22.07 17.43-22.07L17.43-22.07Q18.21-22.07 18.7-22.31L18.7-22.31Q19.14-22.36 19.6-22.36 20.07-22.36 20.51-22.46L20.51-22.46Q20.75-22.51 20.92-22.56 21.09-22.61 21.34-22.66L21.34-22.66Q21.63-22.71 21.97-22.71 22.31-22.71 22.61-22.71L22.61-22.71Q23.39-22.8 24.17-22.83 24.95-22.85 25.73-22.9L25.73-22.9Q25.98-22.8 26.2-22.75 26.42-22.71 26.61-22.61L26.61-22.61Q26.76-22.51 26.86-22.39 26.95-22.27 27.2-22.22L27.2-22.22Q27.44-21.97 27.54-21.73L27.54-21.73Q27.44-21.29 27.59-21.09L27.59-21.09Q27.34-20.85 27.32-20.43 27.29-20.02 27.25-19.68L27.25-19.68Q27.59-19.58 27.83-19.14 28.08-18.7 28.17-18.7L28.17-18.7ZM39.99-33.2L39.99-33.2Q39.99-32.76 39.69-32.54 39.4-32.32 39.16-31.98L39.16-31.98Q38.67-31.54 38.3-31.08 37.94-30.62 37.45-30.18L37.45-30.18Q37.25-29.98 36.91-29.66 36.57-29.35 36.2-29.03 35.84-28.71 35.47-28.47 35.1-28.22 34.86-28.22L34.86-28.22Q34.47-28.22 33.86-28.49 33.25-28.76 32.81-28.86L32.81-28.86Q32.47-28.91 32.2-28.93 31.93-28.96 31.69-29.2L31.69-29.2Q30.81-29.39 30.56-29.81 30.32-30.22 30.03-30.66L30.03-30.66Q30.03-30.86 30.17-30.91 30.32-30.96 30.42-31.1L30.42-31.1Q30.91-31.74 31.25-32.15 31.59-32.57 32.03-33.01L32.03-33.01Q32.86-33.74 33.62-34.52 34.37-35.3 35.2-35.99L35.2-35.99Q35.59-36.04 35.79-36.28 35.98-36.52 36.37-36.52L36.37-36.52Q36.77-36.52 37.03-36.28 37.3-36.04 37.52-35.72 37.74-35.4 37.96-35.08 38.18-34.77 38.47-34.62L38.47-34.62Q38.82-34.38 39.4-33.98 39.99-33.59 39.99-33.2ZM33.3-24.12L33.3-24.12Q33.64-23.93 33.81-23.61 33.98-23.29 34.32-23.14L34.32-23.14Q34.62-23 34.96-23 35.3-23 35.54-22.9L35.54-22.9Q35.74-22.8 35.84-22.66 35.94-22.51 36.03-22.36L36.03-22.36Q36.33-22.12 36.94-21.92 37.55-21.73 37.74-21.48L37.74-21.48Q38.08-21.04 38.25-20.36 38.43-19.68 38.52-18.92 38.62-18.16 38.67-17.41 38.72-16.65 38.82-16.11L38.82-16.11Q38.91-14.99 39.06-13.89 39.21-12.79 39.21-11.67L39.21-11.67Q39.21-10.55 39.11-9.38 39.01-8.2 39.01-7.08L39.01-7.08Q39.01-6.49 38.99-5.62 38.96-4.74 38.57-4.25L38.57-4.25Q38.52-4.05 38.52-3.56L38.52-3.56 38.52-2Q38.52-1.71 38.57-1.42 38.62-1.12 38.62-0.78L38.62-0.78Q38.62-0.24 38.33 0L38.33 0Q38.18-0.05 38.01-0.05 37.84-0.05 37.69-0.05L37.69-0.05Q37.16-0.05 36.91 0.15L36.91 0.15Q36.37 0.1 35.89 0.05 35.4 0 34.86 0L34.86 0Q34.03 0 33.05 0.24L33.05 0.24Q32.86-0.24 32.88-0.78 32.91-1.32 32.66-1.76L32.66-1.76Q32.61-1.9 32.59-2.03 32.57-2.15 32.57-2.29L32.57-2.29Q32.71-2.88 32.71-3.1 32.71-3.32 32.71-3.56L32.71-3.56Q32.71-4.25 32.66-4.96 32.61-5.66 32.71-6.35L32.71-6.35Q32.71-6.59 32.79-6.79 32.86-6.98 32.86-7.23L32.86-7.23Q32.86-7.47 32.76-7.57 32.66-7.67 32.66-7.81L32.66-7.81Q32.66-7.96 32.69-8.3 32.71-8.64 32.81-8.74L32.81-8.74Q32.81-9.13 32.83-9.5 32.86-9.86 32.86-10.21L32.86-10.21Q32.86-10.99 32.81-11.77 32.76-12.55 32.76-13.28L32.76-13.28Q32.76-13.62 32.71-13.72 32.66-13.82 32.61-13.87 32.57-13.92 32.47-13.94 32.37-13.96 32.32-14.11L32.32-14.11Q32.52-16.26 32.18-18.41 31.83-20.56 31.83-22.75L31.83-22.75Q31.83-23.1 31.93-23.27 32.03-23.44 32.18-23.54 32.32-23.63 32.44-23.75 32.57-23.88 32.61-24.12L32.61-24.12Q33.01-24.02 33.3-24.12ZM64.89-34.91L64.89-34.91Q64.79-34.72 64.81-34.52 64.84-34.33 64.84-34.08L64.84-34.08Q64.74-33.5 64.84-33.5 64.94-33.5 64.94-33.4L64.94-33.4 64.59-32.91Q64.59-32.62 64.47-32.37 64.35-32.13 64.4-31.79L64.4-31.79Q64.25-31.54 64.13-31.3 64.01-31.05 63.76-30.81L63.76-30.81 63.13-30.81Q62.59-30.81 61.98-30.74 61.37-30.66 60.79-30.66L60.79-30.66Q60.69-30.66 60.54-30.69 60.4-30.71 60.25-30.71L60.25-30.71Q60.15-30.71 60-30.69 59.86-30.66 59.66-30.66L59.66-30.66Q58.93-30.66 58.22-30.74 57.51-30.81 56.73-30.81L56.73-30.81Q56.54-30.81 56.34-30.81 56.15-30.81 55.9-30.76L55.9-30.76Q55.85-29.93 55.83-29.08 55.81-28.22 55.81-27.34L55.81-27.34Q55.81-27.1 55.76-26.83 55.71-26.56 55.71-26.32L55.71-26.32Q55.66-25.68 55.63-25.1 55.61-24.51 55.61-23.88L55.61-23.88Q55.61-22.51 55.63-21.14 55.66-19.78 55.71-18.36L55.71-18.36Q55.76-17.63 55.81-16.94 55.85-16.26 55.85-15.53L55.85-15.53Q55.85-13.87 55.81-12.23 55.76-10.6 55.76-8.94L55.76-8.94Q55.76-8.4 55.71-7.93 55.66-7.47 55.66-6.93L55.66-6.93Q55.66-5.81 55.71-4.69 55.76-3.56 55.76-2.44L55.76-2.44Q55.76-1.9 55.73-1.37 55.71-0.83 55.71-0.29L55.71-0.29Q55.46 0.1 55.37 0.39 55.27 0.68 54.78 0.68L54.78 0.68Q54.44 0.59 54.46 0.46 54.49 0.34 54.39 0.24L54.39 0.24Q53.95 0.2 53.73 0.32 53.51 0.44 53.22 0.54L53.22 0.54Q53.07 0.49 52.9 0.49 52.73 0.49 52.58 0.49L52.58 0.49Q52.49 0.49 52.39 0.56 52.29 0.63 51.95 0.63L51.95 0.63Q51.66 0.68 51.61 0.54 51.56 0.39 51.31 0.39L51.31 0.39Q51.07 0.54 50.75 0.61 50.43 0.68 50.14 0.68L50.14 0.68Q49.85 0.49 49.87 0.32 49.9 0.15 49.8-0.05L49.8-0.05Q49.75-0.15 49.63-0.32 49.51-0.49 49.41-0.59L49.41-0.59Q49.51-1.27 49.56-1.81 49.6-2.34 49.6-2.98L49.6-2.98Q49.6-4.25 49.51-5.47 49.41-6.69 49.41-7.96L49.41-7.96Q49.41-8.35 49.51-8.79 49.6-9.23 49.6-9.72L49.6-9.72Q49.51-10.11 49.56-10.18 49.6-10.25 49.6-10.35L49.6-10.35Q49.6-10.64 49.58-10.94 49.56-11.23 49.56-11.52L49.56-11.52Q49.56-12.11 49.58-12.7 49.6-13.28 49.6-13.87L49.6-13.87Q49.6-14.11 49.58-14.38 49.56-14.65 49.56-14.89L49.56-14.89Q49.51-15.33 49.53-15.82 49.56-16.31 49.56-16.8L49.56-16.8Q49.56-19.14 49.48-21.44 49.41-23.73 49.41-26.07L49.41-26.07Q49.41-27.25 49.53-28.39 49.65-29.54 49.65-30.71L49.65-30.71Q49.65-30.86 49.56-31.1 49.46-31.35 49.36-31.45L49.36-31.45Q49.12-31.45 48.9-31.47 48.68-31.49 48.43-31.49L48.43-31.49Q47.9-31.49 47.41-31.35L47.41-31.35Q46.48-31.3 45.62-31.23 44.77-31.15 43.89-31.1L43.89-31.1Q43.31-31.15 43.18-31.13 43.06-31.1 42.91-31.1L42.91-31.1Q42.52-31.1 42.33-31.3L42.33-31.3 42.33-31.93Q42.04-32.52 42.08-32.57 42.13-32.62 42.13-32.71L42.13-32.71Q42.13-32.86 41.87-33.03 41.6-33.2 41.6-33.59L41.6-33.59Q41.55-33.98 41.4-34.18 41.25-34.38 41.25-34.57L41.25-34.57Q41.25-34.91 41.4-35.35L41.4-35.35Q41.84-35.6 42.26-35.69 42.67-35.79 43.21-35.94L43.21-35.94Q43.5-36.04 43.75-36.13 43.99-36.23 44.28-36.28L44.28-36.28Q44.62-36.33 44.97-36.33 45.31-36.33 45.65-36.38L45.65-36.38Q46.38-36.52 47.19-36.62 47.99-36.72 48.73-36.72L48.73-36.72Q49.41-36.72 50.09-36.55 50.78-36.38 51.31-36.38L51.31-36.38Q52.09-36.38 52.8-36.28 53.51-36.18 54.29-36.18L54.29-36.18Q54.39-36.18 54.61-36.11 54.83-36.04 55.12-36.04L55.12-36.04 59.86-36.04Q60.25-35.94 60.42-35.99 60.59-36.04 60.74-36.04L60.74-36.04Q61.13-36.04 61.47-35.99 61.81-35.94 62.2-35.94L62.2-35.94Q62.54-35.94 62.74-35.99L62.74-35.99Q63.13-35.94 63.47-35.77 63.81-35.6 64.25-35.6L64.25-35.6Q64.45-35.45 64.55-35.23 64.64-35.01 64.89-34.91Z" opacity="1" transform="matrix(1,0,0,1,0,0)" fill="#ffffff" class="wordmark-text-0" data-fill-palette-color="primary"></path></svg></g><g><svg xmlns="http://www.w3.org/2000/svg" xmlns:xlink="http://www.w3.org/1999/xlink" version="1.1" x="120.13881064967104" y="0" viewBox="0 0.693 100.000413025521 98.61247761341002" enable-background="new 0 0 100 100" xml:space="preserve" id="dxe-0" width="63.004797397791904" height="62.13033511513158" class="icon-dxe-0" data-fill-palette-color="accent"><g fill="#00d1cd" data-fill-palette-color="accent"><path d="M97.926 87.61C96.207 85.599 94.947 83.985 93.934 81.099 91.839 73.308 94.289 64.379 94.289 64.379L94.275 64.388A48.3 48.3 0 0 0 96.766 49.077C96.766 22.354 75.101 0.693 48.383 0.693 21.665 0.694 0 22.355 0 49.078 0 69.758 12.981 87.398 31.232 94.321L31.223 94.322S31.337 94.368 31.545 94.444A48 48 0 0 0 38.973 96.538C48.861 98.769 67.917 101.299 94.449 96.853 101.04 95.723 101.166 91.405 97.926 87.61M65.045 65.791A3.08 3.08 0 0 1 62.796 66.763 3.07 3.07 0 0 1 60.683 65.926L54.2 59.835A13.5 13.5 0 0 1 47.96 61.366C40.473 61.366 34.382 55.275 34.382 47.788S40.473 34.21 47.96 34.21C55.448 34.21 61.539 40.301 61.539 47.788 61.539 50.781 60.555 53.539 58.908 55.786L64.911 61.428A3.087 3.087 0 0 1 65.045 65.791" fill="#00d1cd" data-fill-palette-color="accent"></path><path d="M47.96 39.613C43.453 39.613 39.786 43.28 39.786 47.788 39.786 52.294 43.453 55.962 47.96 55.962S56.135 52.294 56.135 47.788C56.136 43.28 52.468 39.613 47.96 39.613" fill="#00d1cd" data-fill-palette-color="accent"></path></g></svg></g></svg></g></svg></g></svg></g></svg></g></svg></g><defs></defs></svg><rect width="183.14360804746295" height="62.13033511513158" fill="none" stroke="none" visibility="hidden"></rect></g></svg></g></svg>