<svg xmlns="http://www.w3.org/2000/svg" version="1.1" xmlns:xlink="http://www.w3.org/1999/xlink" width="2000" height="1500" viewBox="0 0 2000 1500"><rect width="2000" height="1500" fill="#000000"></rect><g transform="matrix(0.75,0,0,0.75,248.42908899676115,464.0351746037644)"><svg viewBox="0 0 314 119" data-background-color="#444444" preserveAspectRatio="xMidYMid meet" height="757" width="2000" xmlns="http://www.w3.org/2000/svg" xmlns:xlink="http://www.w3.org/1999/xlink"><g id="tight-bounds" transform="matrix(1,0,0,1,0.32884403667799234,0.4380259306949199)"><svg viewBox="0 0 313.342311926644 118.12394813861019" height="118.12394813861019" width="313.342311926644"><g><svg viewBox="0 0 313.342311926644 118.12394813861019" height="118.12394813861019" width="313.342311926644"><g><svg viewBox="0 0 313.342311926644 118.12394813861019" height="118.12394813861019" width="313.342311926644"><g id="textblocktransform"><svg viewBox="0 0 313.342311926644 118.12394813861019" height="118.12394813861019" width="313.342311926644" id="textblock"><g><svg viewBox="0 0 313.342311926644 63.71041324013157" height="63.71041324013157" width="313.342311926644"><g><svg><g></g><g></g></svg></g><g><svg><g><svg></svg></g><g></g></svg></g><g id="text-0"><svg viewBox="0 0 313.342311926644 63.71041324013157" height="63.71041324013157" width="313.342311926644"><g transform="matrix(1,0,0,1,0,0)"><svg width="233.69355468749998" viewBox="-0.24 -37.667999944875 144.42000000000002 39.377999944875" height="63.71041324013157" data-palette-color="#ffffff"><path d="M28.17-18.7L28.37-18.7Q28.47-18.36 28.76-17.97 29.05-17.58 29.05-17.38L29.05-17.38Q28.66-16.46 28.47-15.94 28.27-15.43 27.83-15.04L27.83-15.04Q27.83-14.89 27.54-14.4 27.25-13.92 26.88-13.35 26.51-12.79 26.15-12.28 25.78-11.77 25.68-11.57L25.68-11.57Q25.44-11.18 25.29-10.82 25.15-10.45 24.95-10.11L24.95-10.11Q24.51-9.33 24.05-8.64 23.58-7.96 23.19-7.13L23.19-7.13Q22.95-6.88 22.75-6.59 22.56-6.3 22.31-6.05L22.31-6.05Q21.73-4.98 20.97-4.05 20.21-3.13 19.58-2L19.58-2Q20.12-1.46 20.12-0.63L20.12-0.63Q20.12-0.2 19.87-0.17 19.63-0.15 19.43-0.05L19.43-0.05Q18.95 0.29 18.55 0.34 18.16 0.39 17.92 0.39L17.92 0.39Q17.38 0.39 16.75 0.37 16.11 0.34 15.67 0.44L15.67 0.44Q15.53 0.49 15.33 0.61 15.14 0.73 15.04 0.73L15.04 0.73Q14.65 0.73 14.48 0.61 14.31 0.49 14.01 0.39L14.01 0.39Q13.62-0.05 13.31-0.54 12.99-1.03 12.65-1.51L12.65-1.51Q12.35-1.86 12.01-2.12 11.67-2.39 11.38-2.78L11.38-2.78Q10.6-3.91 9.79-4.93 8.98-5.96 8.15-6.98L8.15-6.98Q7.76-7.52 7.3-8.01 6.84-8.5 6.45-8.98L6.45-8.98Q6.05-9.52 5.71-10.11 5.37-10.69 4.98-11.23L4.98-11.23Q4.69-11.72 4.15-12.43 3.61-13.13 3.03-13.87 2.44-14.6 1.83-15.26 1.22-15.92 0.78-16.26L0.78-16.26Q0.78-16.6 0.59-16.75 0.39-16.89 0.15-17.09L0.15-17.09Q0.05-17.33-0.1-17.55-0.24-17.77-0.24-18.07L-0.24-18.07Q-0.24-18.41-0.1-18.7L-0.1-18.7Q0-18.9 0.02-19.07 0.05-19.24 0.15-19.43L0.15-19.43Q0.39-20.07 0.85-20.56 1.32-21.04 1.56-21.68L1.56-21.68Q1.61-21.88 1.61-22.05 1.61-22.22 1.71-22.41L1.71-22.41Q1.86-22.75 2.15-23.02 2.44-23.29 2.69-23.63L2.69-23.63Q2.93-24.07 3.17-24.51 3.42-24.95 3.66-25.39L3.66-25.39Q4.35-26.51 5.18-27.56 6.01-28.61 6.74-29.64L6.74-29.64Q7.42-30.62 8.01-31.57 8.59-32.52 9.28-33.5L9.28-33.5Q9.62-33.98 10.06-34.59 10.5-35.21 10.96-35.79 11.43-36.38 11.91-36.89 12.4-37.4 12.89-37.65L12.89-37.65Q13.72-37.74 13.96-37.38 14.21-37.01 14.65-37.01L14.65-37.01Q15.33-36.87 15.58-36.57 15.82-36.28 16.06-36.04L16.06-36.04Q16.7-36.04 17.14-35.79 17.58-35.55 18.02-35.06L18.02-35.06Q17.82-34.52 17.5-34.08 17.19-33.64 16.94-33.15L16.94-33.15Q16.55-33.01 16.38-32.67 16.21-32.32 15.87-32.08L15.87-32.08Q15.33-31.25 14.79-30.44 14.26-29.64 13.72-28.91L13.72-28.91Q13.48-28.61 13.18-28.44 12.89-28.27 12.65-27.93L12.65-27.93Q12.55-27.78 12.5-27.61 12.45-27.44 12.35-27.29L12.35-27.29Q11.77-26.37 11.04-25.49 10.3-24.61 9.77-23.63L9.77-23.63Q9.52-23.29 9.38-22.92 9.23-22.56 9.03-22.22L9.03-22.22Q8.84-21.88 8.47-21.36 8.11-20.85 7.74-20.31 7.37-19.78 7.1-19.24 6.84-18.7 6.84-18.36L6.84-18.36Q6.88-18.12 7.47-17.38 8.06-16.65 8.79-15.82 9.52-14.99 10.18-14.23 10.84-13.48 10.99-13.33L10.99-13.33Q11.08-13.09 11.72-12.28 12.35-11.47 13.16-10.52 13.96-9.57 14.75-8.69 15.53-7.81 15.82-7.42L15.82-7.42 16.21-6.79Q16.31-6.84 16.72-7.47 17.14-8.11 17.58-8.89 18.02-9.67 18.38-10.35 18.75-11.04 18.85-11.23L18.85-11.23Q18.99-11.38 19.34-12.01 19.68-12.65 20.09-13.38 20.51-14.11 20.83-14.75 21.14-15.38 21.19-15.58L21.19-15.58 20.61-15.58Q19.82-15.58 19.07-15.5 18.31-15.43 17.53-15.19L17.53-15.19Q17.19-15.23 16.94-15.38 16.7-15.53 16.36-15.67L16.36-15.67Q16.21-16.16 16.24-16.36 16.26-16.55 16.21-16.65L16.21-16.65Q16.16-16.85 16.09-16.94 16.02-17.04 16.02-17.24L16.02-17.24Q16.02-17.58 15.92-17.8 15.82-18.02 15.72-18.31L15.72-18.31Q15.72-18.51 15.75-18.7 15.77-18.9 15.67-19.04L15.67-19.04Q15.77-19.92 15.53-20.31L15.53-20.31Q15.53-21 15.72-21.19 15.92-21.39 16.02-21.78L16.02-21.78Q16.46-21.63 16.77-21.85 17.09-22.07 17.43-22.07L17.43-22.07Q18.21-22.07 18.7-22.31L18.7-22.31Q19.14-22.36 19.6-22.36 20.07-22.36 20.51-22.46L20.51-22.46Q20.75-22.51 20.92-22.56 21.09-22.61 21.34-22.66L21.34-22.66Q21.63-22.71 21.97-22.71 22.31-22.71 22.61-22.71L22.61-22.71Q23.39-22.8 24.17-22.83 24.95-22.85 25.73-22.9L25.73-22.9Q25.98-22.8 26.2-22.75 26.42-22.71 26.61-22.61L26.61-22.61Q26.76-22.51 26.86-22.39 26.95-22.27 27.2-22.22L27.2-22.22Q27.44-21.97 27.54-21.73L27.54-21.73Q27.44-21.29 27.59-21.09L27.59-21.09Q27.34-20.85 27.32-20.43 27.29-20.02 27.25-19.68L27.25-19.68Q27.59-19.58 27.83-19.14 28.08-18.7 28.17-18.7L28.17-18.7ZM39.99-33.2L39.99-33.2Q39.99-32.76 39.69-32.54 39.4-32.32 39.16-31.98L39.16-31.98Q38.67-31.54 38.3-31.08 37.94-30.62 37.45-30.18L37.45-30.18Q37.25-29.98 36.91-29.66 36.57-29.35 36.2-29.03 35.84-28.71 35.47-28.47 35.1-28.22 34.86-28.22L34.86-28.22Q34.47-28.22 33.86-28.49 33.25-28.76 32.81-28.86L32.81-28.86Q32.47-28.91 32.2-28.93 31.93-28.96 31.69-29.2L31.69-29.2Q30.81-29.39 30.56-29.81 30.32-30.22 30.03-30.66L30.03-30.66Q30.03-30.86 30.17-30.91 30.32-30.96 30.42-31.1L30.42-31.1Q30.91-31.74 31.25-32.15 31.59-32.57 32.03-33.01L32.03-33.01Q32.86-33.74 33.62-34.52 34.37-35.3 35.2-35.99L35.2-35.99Q35.59-36.04 35.79-36.28 35.98-36.52 36.37-36.52L36.37-36.52Q36.77-36.52 37.03-36.28 37.3-36.04 37.52-35.72 37.74-35.4 37.96-35.08 38.18-34.77 38.47-34.62L38.47-34.62Q38.82-34.38 39.4-33.98 39.99-33.59 39.99-33.2ZM33.3-24.12L33.3-24.12Q33.64-23.93 33.81-23.61 33.98-23.29 34.32-23.14L34.32-23.14Q34.62-23 34.96-23 35.3-23 35.54-22.9L35.54-22.9Q35.74-22.8 35.84-22.66 35.94-22.51 36.03-22.36L36.03-22.36Q36.33-22.12 36.94-21.92 37.55-21.73 37.74-21.48L37.74-21.48Q38.08-21.04 38.25-20.36 38.43-19.68 38.52-18.92 38.62-18.16 38.67-17.41 38.72-16.65 38.82-16.11L38.82-16.11Q38.91-14.99 39.06-13.89 39.21-12.79 39.21-11.67L39.21-11.67Q39.21-10.55 39.11-9.38 39.01-8.2 39.01-7.08L39.01-7.08Q39.01-6.49 38.99-5.62 38.96-4.74 38.57-4.25L38.57-4.25Q38.52-4.05 38.52-3.56L38.52-3.56 38.52-2Q38.52-1.71 38.57-1.42 38.62-1.12 38.62-0.78L38.62-0.78Q38.62-0.24 38.33 0L38.33 0Q38.18-0.05 38.01-0.05 37.84-0.05 37.69-0.05L37.69-0.05Q37.16-0.05 36.91 0.15L36.91 0.15Q36.37 0.1 35.89 0.05 35.4 0 34.86 0L34.86 0Q34.03 0 33.05 0.24L33.05 0.24Q32.86-0.24 32.88-0.78 32.91-1.32 32.66-1.76L32.66-1.76Q32.61-1.9 32.59-2.03 32.57-2.15 32.57-2.29L32.57-2.29Q32.71-2.88 32.71-3.1 32.71-3.32 32.71-3.56L32.71-3.56Q32.71-4.25 32.66-4.96 32.61-5.66 32.71-6.35L32.71-6.35Q32.71-6.59 32.79-6.79 32.86-6.98 32.86-7.23L32.86-7.23Q32.86-7.47 32.76-7.57 32.66-7.67 32.66-7.81L32.66-7.81Q32.66-7.96 32.69-8.3 32.71-8.64 32.81-8.74L32.81-8.74Q32.81-9.13 32.83-9.5 32.86-9.86 32.86-10.21L32.86-10.21Q32.86-10.99 32.81-11.77 32.76-12.55 32.76-13.28L32.76-13.28Q32.76-13.62 32.71-13.72 32.66-13.82 32.61-13.87 32.57-13.92 32.47-13.94 32.37-13.96 32.32-14.11L32.32-14.11Q32.52-16.26 32.18-18.41 31.83-20.56 31.83-22.75L31.83-22.75Q31.83-23.1 31.93-23.27 32.03-23.44 32.18-23.54 32.32-23.63 32.44-23.75 32.57-23.88 32.61-24.12L32.61-24.12Q33.01-24.02 33.3-24.12ZM64.89-34.91L64.89-34.91Q64.79-34.72 64.81-34.52 64.84-34.33 64.84-34.08L64.84-34.08Q64.74-33.5 64.84-33.5 64.94-33.5 64.94-33.4L64.94-33.4 64.59-32.91Q64.59-32.62 64.47-32.37 64.35-32.13 64.4-31.79L64.4-31.79Q64.25-31.54 64.13-31.3 64.01-31.05 63.76-30.81L63.76-30.81 63.13-30.81Q62.59-30.81 61.98-30.74 61.37-30.66 60.79-30.66L60.79-30.66Q60.69-30.66 60.54-30.69 60.4-30.71 60.25-30.71L60.25-30.71Q60.15-30.71 60-30.69 59.86-30.66 59.66-30.66L59.66-30.66Q58.93-30.66 58.22-30.74 57.51-30.81 56.73-30.81L56.73-30.81Q56.54-30.81 56.34-30.81 56.15-30.81 55.9-30.76L55.9-30.76Q55.85-29.93 55.83-29.08 55.81-28.22 55.81-27.34L55.81-27.34Q55.81-27.1 55.76-26.83 55.71-26.56 55.71-26.32L55.71-26.32Q55.66-25.68 55.63-25.1 55.61-24.51 55.61-23.88L55.61-23.88Q55.61-22.51 55.63-21.14 55.66-19.78 55.71-18.36L55.71-18.36Q55.76-17.63 55.81-16.94 55.85-16.26 55.85-15.53L55.85-15.53Q55.85-13.87 55.81-12.23 55.76-10.6 55.76-8.94L55.76-8.94Q55.76-8.4 55.71-7.93 55.66-7.47 55.66-6.93L55.66-6.93Q55.66-5.81 55.71-4.69 55.76-3.56 55.76-2.44L55.76-2.44Q55.76-1.9 55.73-1.37 55.71-0.83 55.71-0.29L55.71-0.29Q55.46 0.1 55.37 0.39 55.27 0.68 54.78 0.68L54.78 0.68Q54.44 0.59 54.46 0.46 54.49 0.34 54.39 0.24L54.39 0.24Q53.95 0.2 53.73 0.32 53.51 0.44 53.22 0.54L53.22 0.54Q53.07 0.49 52.9 0.49 52.73 0.49 52.58 0.49L52.58 0.49Q52.49 0.49 52.39 0.56 52.29 0.63 51.95 0.63L51.95 0.63Q51.66 0.68 51.61 0.54 51.56 0.39 51.31 0.39L51.31 0.39Q51.07 0.54 50.75 0.61 50.43 0.68 50.14 0.68L50.14 0.68Q49.85 0.49 49.87 0.32 49.9 0.15 49.8-0.05L49.8-0.05Q49.75-0.15 49.63-0.32 49.51-0.49 49.41-0.59L49.41-0.59Q49.51-1.27 49.56-1.81 49.6-2.34 49.6-2.98L49.6-2.98Q49.6-4.25 49.51-5.47 49.41-6.69 49.41-7.96L49.41-7.96Q49.41-8.35 49.51-8.79 49.6-9.23 49.6-9.72L49.6-9.72Q49.51-10.11 49.56-10.18 49.6-10.25 49.6-10.35L49.6-10.35Q49.6-10.64 49.58-10.94 49.56-11.23 49.56-11.52L49.56-11.52Q49.56-12.11 49.58-12.7 49.6-13.28 49.6-13.87L49.6-13.87Q49.6-14.11 49.58-14.38 49.56-14.65 49.56-14.89L49.56-14.89Q49.51-15.33 49.53-15.82 49.56-16.31 49.56-16.8L49.56-16.8Q49.56-19.14 49.48-21.44 49.41-23.73 49.41-26.07L49.41-26.07Q49.41-27.25 49.53-28.39 49.65-29.54 49.65-30.71L49.65-30.71Q49.65-30.86 49.56-31.1 49.46-31.35 49.36-31.45L49.36-31.45Q49.12-31.45 48.9-31.47 48.68-31.49 48.43-31.49L48.43-31.49Q47.9-31.49 47.41-31.35L47.41-31.35Q46.48-31.3 45.62-31.23 44.77-31.15 43.89-31.1L43.89-31.1Q43.31-31.15 43.18-31.13 43.06-31.1 42.91-31.1L42.91-31.1Q42.52-31.1 42.33-31.3L42.33-31.3 42.33-31.93Q42.04-32.52 42.08-32.57 42.13-32.62 42.13-32.71L42.13-32.71Q42.13-32.86 41.87-33.03 41.6-33.2 41.6-33.59L41.6-33.59Q41.55-33.98 41.4-34.18 41.25-34.38 41.25-34.57L41.25-34.57Q41.25-34.91 41.4-35.35L41.4-35.35Q41.84-35.6 42.26-35.69 42.67-35.79 43.21-35.94L43.21-35.94Q43.5-36.04 43.75-36.13 43.99-36.23 44.28-36.28L44.28-36.28Q44.62-36.33 44.97-36.33 45.31-36.33 45.65-36.38L45.65-36.38Q46.38-36.52 47.19-36.62 47.99-36.72 48.73-36.72L48.73-36.72Q49.41-36.72 50.09-36.55 50.78-36.38 51.31-36.38L51.31-36.38Q52.09-36.38 52.8-36.28 53.51-36.18 54.29-36.18L54.29-36.18Q54.39-36.18 54.61-36.11 54.83-36.04 55.12-36.04L55.12-36.04 59.86-36.04Q60.25-35.94 60.42-35.99 60.59-36.04 60.74-36.04L60.74-36.04Q61.13-36.04 61.47-35.99 61.81-35.94 62.2-35.94L62.2-35.94Q62.54-35.94 62.74-35.99L62.74-35.99Q63.13-35.94 63.47-35.77 63.81-35.6 64.25-35.6L64.25-35.6Q64.45-35.45 64.55-35.23 64.64-35.01 64.89-34.91ZM87.79-36.28L88.27-36.13Q88.86-36.28 89.1-36.25 89.35-36.23 89.59-36.18L89.59-36.18Q89.89-35.99 90.08-35.69L90.08-35.69Q90.08-34.67 90.06-33.67 90.03-32.67 90.03-31.64L90.03-31.64Q90.03-29.79 90.08-27.93 90.13-26.07 90.08-24.22L90.08-24.22Q90.18-23.78 90.13-23.73 90.08-23.68 90.08-23.58L90.08-23.58Q90.08-21.73 90.18-19.92 90.28-18.12 90.28-16.26L90.28-16.26 90.28-9.77Q90.28-7.67 90.4-5.62 90.52-3.56 90.52-1.51L90.52-1.51Q90.52-1.32 90.28-0.98L90.28-0.98Q90.18-0.59 89.98-0.34L89.98-0.34Q89.54-0.29 89.15-0.49L89.15-0.49Q88.96-0.49 88.88-0.37 88.81-0.24 88.66-0.15L88.66-0.15Q88.27-0.15 88.03 0.05 87.79 0.24 87.44 0.24L87.44 0.24Q87.15 0.24 86.88 0.17 86.61 0.1 86.27 0.1L86.27 0.1Q86.17 0.1 85.98 0.27 85.78 0.44 85.69 0.49L85.69 0.49Q85.44 0.49 85.25 0.56 85.05 0.63 84.81 0.63L84.81 0.63Q84.56 0.44 84.59 0.05 84.61-0.34 84.27-0.44L84.27-0.44Q84.27-0.68 84.29-0.98 84.32-1.27 84.32-1.56L84.32-1.56Q84.32-3.47 84.22-5.4 84.12-7.32 84.07-9.23L84.07-9.23Q84.03-10.06 84.05-10.86 84.07-11.67 84.07-12.5L84.07-12.5Q84.07-12.94 84.07-13.38 84.07-13.82 83.98-14.21L83.98-14.21Q83.68-14.26 83.46-14.14 83.24-14.01 83-14.01L83-14.01Q81.97-13.67 81.63-13.33L81.63-13.33Q81.34-13.33 81.14-13.23 80.95-13.13 80.71-13.04L80.71-13.04Q80.31-12.94 79.95-12.87 79.58-12.79 79.19-12.65L79.19-12.65Q78.95-12.55 78.7-12.45 78.46-12.35 78.22-12.26L78.22-12.26Q77.68-12.06 77.14-11.89 76.6-11.72 76.07-11.52L76.07-11.52Q75.53-11.43 75.14-11.23 74.75-11.04 74.36-10.84L74.36-10.84Q74.02-8.54 73.99-6.47 73.97-4.39 74.11-2.34L74.11-2.34Q74.02-2.05 74.02-1.68 74.02-1.32 73.87-1.07L73.87-1.07Q73.33-0.93 73.16-1.05 72.99-1.17 72.8-1.27L72.8-1.27Q72.6-1.22 72.48-1.07 72.36-0.93 72.26-0.83L72.26-0.83Q71.87-0.83 71.65-0.66 71.43-0.49 71.23-0.39L71.23-0.39Q71.09-0.34 70.94-0.39 70.79-0.44 70.6-0.34L70.6-0.34Q70.11-0.34 70.13-0.46 70.16-0.59 70.01-0.59L70.01-0.59Q69.82-0.59 69.74-0.42 69.67-0.24 69.47-0.15L69.47-0.15Q69.28-0.05 69.04-0.02 68.79 0 68.55 0.1L68.55 0.1Q68.3-0.15 68.3-0.44 68.3-0.73 68.06-0.98L68.06-0.98Q67.96-1.66 67.94-2.32 67.91-2.98 67.77-3.66L67.77-3.66Q67.86-5.03 67.84-5.86 67.81-6.69 67.81-7.57L67.81-7.57Q67.81-8.35 67.77-9.13 67.72-9.91 67.67-10.69L67.67-10.69Q67.57-12.11 67.5-13.57 67.42-15.04 67.42-16.5L67.42-16.5Q67.42-17.72 67.55-18.9 67.67-20.07 67.67-21.29L67.67-21.29Q67.67-22.12 67.69-22.92 67.72-23.73 67.72-24.56L67.72-24.56Q67.72-25.24 67.69-25.9 67.67-26.56 67.67-27.2L67.67-27.2Q67.67-27.93 67.77-28.64 67.86-29.35 67.86-30.03L67.86-30.03Q67.86-30.86 67.77-31.67 67.67-32.47 67.67-33.3L67.67-33.3Q67.67-33.54 67.72-33.76 67.77-33.98 67.77-34.23L67.77-34.23Q67.72-34.77 67.81-34.89 67.91-35.01 68.01-35.21L68.01-35.21Q68.25-35.25 68.55-35.35 68.84-35.45 69.08-35.35L69.08-35.35Q69.38-35.64 69.89-35.64 70.4-35.64 70.65-35.99L70.65-35.99Q70.99-35.94 71.11-35.96 71.23-35.99 71.33-35.99L71.33-35.99Q71.77-35.89 71.79-36.01 71.82-36.13 71.97-36.13L71.97-36.13Q72.21-36.13 72.72-36.11 73.23-36.08 73.43-35.89L73.43-35.89Q73.92-33.3 73.97-30.62 74.02-27.93 74.02-25.29L74.02-25.29Q74.02-24.61 74.06-23.9 74.11-23.19 74.02-22.51L74.02-22.51Q74.02-22.22 73.97-21.95 73.92-21.68 73.92-21.39L73.92-21.39Q73.92-20.56 73.82-19.65 73.72-18.75 73.72-17.92L73.72-17.92Q74.31-17.58 74.72-17.7 75.14-17.82 75.53-17.97L75.53-17.97Q76.02-18.12 76.43-18.29 76.85-18.46 77.29-18.6L77.29-18.6Q77.68-18.8 78.14-18.92 78.61-19.04 79-19.14L79-19.14Q80.27-19.58 81.49-20.21 82.71-20.85 83.98-21.24L83.98-21.24Q83.88-23.93 83.88-26.59 83.88-29.25 83.88-31.88L83.88-31.88Q83.88-32.62 83.88-33.4 83.88-34.18 83.98-34.91L83.98-34.91Q84.03-35.11 84.1-35.23 84.17-35.35 84.17-35.6L84.17-35.6Q84.32-35.84 84.51-35.94 84.71-36.04 84.81-36.23L84.81-36.23Q84.9-36.13 85.03-36.06 85.15-35.99 85.3-35.94L85.3-35.94Q85.69-36.04 85.76-36.08 85.83-36.13 85.93-36.18L85.93-36.18Q86.17-36.28 86.56-36.28 86.96-36.28 87.2-36.28L87.2-36.28 87.79-36.28ZM116.49-5.86L116.49-5.86Q116.01-5.81 115.91-5.91L115.91-5.91Q115.71-5.81 115.54-5.71 115.37-5.62 115.18-5.47L115.18-5.47Q114.49-5.22 113.83-4.83 113.17-4.44 112.49-4.1L112.49-4.1Q112.1-3.91 111.73-3.78 111.37-3.66 110.98-3.47L110.98-3.47Q110.39-3.17 109.8-2.86 109.22-2.54 108.58-2.29L108.58-2.29Q108.24-2.2 107.92-2.1 107.61-2 107.27-1.9L107.27-1.9Q106.87-1.76 106.56-1.59 106.24-1.42 105.9-1.27L105.9-1.27Q105.65-1.17 105.39-1.1 105.12-1.03 104.82-0.88L104.82-0.88Q104.58-0.78 104.41-0.63 104.24-0.49 103.99-0.39L103.99-0.39Q103.6-0.24 103.19-0.1 102.77 0.05 102.38 0.24L102.38 0.24Q101.99 0.44 101.82 0.61 101.65 0.78 101.16 0.93L101.16 0.93Q100.67 1.22 100.62 1.25 100.58 1.27 100.48 1.27L100.48 1.27Q100.33 1.37 100.21 1.44 100.09 1.51 99.94 1.61L99.94 1.61Q99.65 1.61 99.36 1.66 99.06 1.71 98.77 1.71L98.77 1.71Q98.43 1.51 98.31 1.32 98.18 1.12 98.18 0.78L98.18 0.78Q97.99 0.54 97.82 0.24 97.65-0.05 97.45-0.29L97.45-0.29Q97.11-0.1 97.04-0.32 96.96-0.54 96.91-0.81 96.87-1.07 96.82-1.34 96.77-1.61 96.72-1.71L96.72-1.71Q96.47-2.64 96.47-3.08L96.47-3.08Q96.47-3.32 96.57-3.39 96.67-3.47 96.67-3.61L96.67-3.61Q96.72-4.1 96.77-4.74 96.82-5.37 96.82-6.05 96.82-6.74 96.82-7.42 96.82-8.11 96.82-8.64L96.82-8.64Q96.82-10.84 96.77-12.92 96.72-14.99 96.72-17.09L96.72-17.09Q96.72-18.07 96.77-19.04 96.82-20.02 96.82-21L96.82-21Q96.82-23.39 96.89-25.73 96.96-28.08 96.96-30.47L96.96-30.47Q96.96-31.45 96.87-32.45 96.77-33.45 96.72-34.47L96.72-34.47Q96.67-35.01 96.77-35.33 96.87-35.64 96.82-35.99L96.82-35.99Q96.96-36.04 97.35-36.04 97.74-36.04 98.16-36.06 98.57-36.08 98.94-36.11 99.31-36.13 99.4-36.18L99.4-36.18Q99.75-35.94 100.09-35.94L100.09-35.94Q100.43-35.94 100.72-36.23L100.72-36.23Q100.97-36.13 100.99-36.08 101.02-36.04 101.26-36.04L101.26-36.04Q101.7-36.08 101.94-36.11 102.19-36.13 102.38-36.13L102.38-36.13Q102.92-35.74 103.04-35.18 103.16-34.62 103.21-34.01 103.26-33.4 103.29-32.79 103.31-32.18 103.31-31.79L103.31-31.79Q103.31-31.49 103.36-31.18 103.41-30.86 103.41-30.52L103.41-30.52Q103.41-30.27 103.38-30.03 103.36-29.79 103.36-29.54L103.36-29.54Q103.36-28.13 103.38-26.66 103.41-25.2 103.41-23.78L103.41-23.78Q103.41-21.24 103.33-18.68 103.26-16.11 103.26-13.57L103.26-13.57Q103.26-13.04 103.31-12.5 103.36-11.96 103.36-11.43L103.36-11.43Q103.36-11.13 103.33-10.84 103.31-10.55 103.31-10.25L103.31-10.25Q103.31-8.45 103.46-6.64L103.46-6.64Q103.65-6.69 104.29-6.91 104.92-7.13 105.61-7.4 106.29-7.67 106.87-7.93 107.46-8.2 107.61-8.35L107.61-8.35Q107.8-8.35 108.14-8.5 108.49-8.64 108.88-8.86 109.27-9.08 109.63-9.28 110-9.47 110.15-9.62L110.15-9.62Q110.1-10.6 110.1-11.6 110.1-12.6 110.1-13.57L110.1-13.57Q110.1-16.26 110.17-18.95 110.24-21.63 110.24-24.41L110.24-24.41Q110.24-26.12 110.2-27.83 110.15-29.54 110.15-31.25L110.15-31.25Q110.15-31.79 110.17-32.35 110.2-32.91 110.2-33.45L110.2-33.45Q110.2-34.28 110.17-35.08 110.15-35.89 110.24-36.72L110.24-36.72Q110.73-36.96 110.78-36.96L110.78-36.96Q111.07-36.96 111.2-36.96 111.32-36.96 111.42-36.87L111.42-36.87Q111.56-36.82 111.68-36.84 111.81-36.87 111.95-36.87L111.95-36.87Q112.2-36.87 112.44-36.77 112.69-36.67 112.93-36.67L112.93-36.67Q113.32-36.72 113.34-36.57 113.37-36.43 113.52-36.43L113.52-36.43Q113.91-36.57 114.05-36.43L114.05-36.43Q114.2-36.33 114.59-36.16 114.98-35.99 115.42-35.79 115.86-35.6 116.2-35.42 116.54-35.25 116.54-35.11L116.54-35.11Q116.69-34.33 116.64-33.45 116.59-32.57 116.59-31.79L116.59-31.79Q116.59-31.1 116.64-30.42 116.69-29.74 116.69-29.05L116.69-29.05Q116.69-28.66 116.69-28.27 116.69-27.88 116.74-27.54L116.74-27.54Q116.79-27.29 116.79-27.12 116.79-26.95 116.79-26.76L116.79-26.76Q116.79-26.51 116.88-26.12L116.88-26.12Q116.84-25.88 116.84-25.61 116.84-25.34 116.84-25.1L116.84-25.1Q116.84-24.41 116.88-23.68 116.93-22.95 116.93-22.22L116.93-22.22Q116.93-21.73 116.86-21.29 116.79-20.85 116.79-20.41L116.79-20.41 116.84-19.48Q116.84-18.99 116.88-18.51 116.93-18.02 116.93-17.48L116.93-17.48Q116.93-17.24 116.91-16.99 116.88-16.75 116.84-16.5L116.84-16.5Q116.79-16.26 116.79-15.97 116.79-15.67 116.79-15.43L116.79-15.43Q116.79-14.75 116.84-14.06 116.88-13.38 116.88-12.7L116.88-12.7Q116.88-12.26 116.86-11.84 116.84-11.43 116.84-10.99L116.84-10.99Q116.84-10.11 116.91-9.18 116.98-8.25 116.98-7.37L116.98-7.37Q116.98-6.98 116.88-6.54 116.79-6.1 116.49-5.86ZM142.22-27.49L142.22-27.49Q142.22-26.95 142.44-26.59 142.66-26.22 142.66-25.93L142.66-25.93Q142.57-25.44 142.86-24.78 143.15-24.12 143.15-23.44L143.15-23.44Q143.05-23.14 142.39-22.68 141.74-22.22 140.93-21.68 140.12-21.14 139.37-20.63 138.61-20.12 138.32-19.82L138.32-19.82Q138.56-19.43 138.93-19.19 139.29-18.95 139.64-18.7L139.64-18.7Q139.93-18.46 140.49-17.99 141.05-17.53 141.66-16.99 142.27-16.46 142.79-15.97 143.3-15.48 143.44-15.23L143.44-15.23Q143.54-15.19 143.62-14.89 143.69-14.6 143.74-14.23 143.79-13.87 143.81-13.53 143.84-13.18 143.84-13.09L143.84-13.09Q143.79-12.55 143.86-12.3 143.93-12.06 144.01-11.79 144.08-11.52 144.13-11.28 144.18-11.04 144.18-11.04L144.18-11.04Q144.18-10.74 143.91-10.5 143.64-10.25 143.4-10.06L143.4-10.06Q143.15-9.86 142.93-9.67 142.71-9.47 142.47-9.23L142.47-9.23Q142.18-8.98 141.81-8.76 141.44-8.54 141.15-8.3L141.15-8.3Q140.95-8.2 140.81-8.03 140.66-7.86 140.51-7.76L140.51-7.76Q140.08-7.37 139.54-7.01 139-6.64 138.51-6.35L138.51-6.35Q137.98-6.01 137.49-5.64 137-5.27 136.46-4.88L136.46-4.88Q135.73-4.44 135.02-4.03 134.31-3.61 133.63-3.17L133.63-3.17Q133.29-2.93 132.97-2.69 132.65-2.44 132.31-2.25L132.31-2.25Q131.34-1.71 130.36-1.12 129.38-0.54 128.45 0.15L128.45 0.15Q127.67 0.34 127.33 0.46 126.99 0.59 126.65 0.59L126.65 0.59Q126.35 0.59 126.28 0.37 126.21 0.15 126.01 0.15L126.01 0.15Q125.28 0.24 125.21 0.17 125.13 0.1 124.99 0L124.99 0Q124.26 0.1 123.77 0L123.77 0Q123.62-0.24 123.57-0.61 123.52-0.98 123.28-1.22L123.28-1.22Q123.38-1.71 123.3-2.15 123.23-2.59 123.33-3.03L123.33-3.03Q123.18-3.61 123.18-4.1L123.18-4.1Q123.18-4.74 123.33-5.42L123.33-5.42Q123.18-5.86 123.18-6.3L123.18-6.3Q123.18-6.69 123.23-7.08 123.28-7.47 123.28-7.86L123.28-7.86Q123.28-8.35 123.08-8.74L123.08-8.74Q123.08-9.62 123.06-10.47 123.03-11.33 123.03-12.21L123.03-12.21Q123.03-12.6 123.03-12.99 123.03-13.38 123.08-13.82L123.08-13.82Q123.03-14.06 123.03-14.55L123.03-14.55Q123.03-14.84 123.13-15.06 123.23-15.28 123.23-15.53L123.23-15.53Q123.23-16.06 123.16-16.55 123.08-17.04 123.08-17.58L123.08-17.58Q123.08-18.07 123.16-18.51 123.23-18.95 123.23-19.43L123.23-19.43Q123.08-19.63 123.03-19.87 122.99-20.12 122.99-20.36L122.99-20.36Q122.99-20.56 123.08-20.95L123.08-20.95Q123.08-21.34 123.03-21.78 122.99-22.22 122.99-22.61L122.99-22.61Q122.99-22.8 123.01-22.95 123.03-23.1 123.08-23.29L123.08-23.29Q122.99-23.63 122.99-23.97 122.99-24.32 122.99-24.66L122.99-24.66Q122.99-25.1 123.03-25.56 123.08-26.03 123.08-26.46L123.08-26.46Q123.03-27.2 123.11-27.61 123.18-28.03 123.23-28.47L123.23-28.47 123.23-31.25Q123.23-31.64 123.13-32.1 123.03-32.57 123.03-33.01L123.03-33.01Q123.03-33.25 123.08-33.74 123.13-34.23 123.23-34.47L123.23-34.47Q123.91-35.5 124.84-35.64L124.84-35.64Q125.04-35.74 125.13-35.91 125.23-36.08 125.57-36.08L125.57-36.08Q126.16-36.57 126.35-36.84 126.55-37.11 126.84-37.35L126.84-37.35Q126.99-37.35 127.11-37.43 127.23-37.5 127.43-37.5L127.43-37.5Q127.77-37.4 127.99-37.3 128.21-37.21 128.45-37.16L128.45-37.16Q129.43-36.43 130.38-35.72 131.34-35.01 132.31-34.23L132.31-34.23Q132.75-33.84 133.17-33.45 133.58-33.06 134.02-32.71L134.02-32.71Q134.26-32.57 134.56-32.42 134.85-32.28 135.09-32.08L135.09-32.08Q135.63-31.74 136.17-31.37 136.71-31.01 137.24-30.66L137.24-30.66 140.76-28.47Q141.15-28.22 141.52-27.98 141.88-27.73 142.22-27.49ZM135.24-25.39L135.24-25.39Q134.51-25.73 133.85-26.22 133.19-26.71 132.46-26.95L132.46-26.95Q132.07-27.34 131.63-27.49 131.19-27.64 130.8-27.93L130.8-27.93Q130.36-28.32 130.02-28.61 129.68-28.91 129.14-29.15L129.14-29.15Q128.89-27.64 128.77-26.2 128.65-24.76 128.65-23.29L128.65-23.29Q128.65-21.78 128.94-20.41L128.94-20.41Q129.48-20.65 129.97-20.95 130.46-21.24 130.94-21.53L130.94-21.53Q131.14-21.63 131.31-21.73 131.48-21.83 131.73-21.92L131.73-21.92Q131.97-22.12 132.21-22.31 132.46-22.51 132.7-22.66L132.7-22.66Q133.24-23.05 133.75-23.36 134.26-23.68 134.8-24.07L134.8-24.07Q135.05-24.27 135.34-24.39 135.63-24.51 135.93-24.76L135.93-24.76Q135.88-24.95 135.61-25.07 135.34-25.2 135.24-25.39ZM133.83-16.26L133.83-16.26Q133.68-16.26 133.53-16.33 133.39-16.41 133.19-16.41L133.19-16.41Q132.6-16.02 132.09-15.75 131.58-15.48 131.04-15.14L131.04-15.14Q130.8-14.99 130.55-14.79 130.31-14.6 130.07-14.5L130.07-14.5Q129.43-14.11 129.09-13.84 128.75-13.57 128.55-13.18L128.55-13.18Q128.65-11.82 128.63-10.45 128.6-9.08 128.6-7.67L128.6-7.67Q128.6-7.42 128.75-7.13L128.75-7.13Q129.19-7.18 130.31-7.79 131.43-8.4 132.68-9.18 133.92-9.96 135.07-10.69 136.22-11.43 136.76-11.77L136.76-11.77Q137.15-11.87 137.66-12.16 138.17-12.45 138.27-12.84L138.27-12.84Q137.34-13.92 136.12-14.62 134.9-15.33 133.83-16.26Z" opacity="1" transform="matrix(1,0,0,1,0,0)" fill="#ffffff" class="wordmark-text-0" data-fill-palette-color="primary"></path></svg></g><g><svg xmlns="http://www.w3.org/2000/svg" xmlns:xlink="http://www.w3.org/1999/xlink" version="1.1" x="248.73519736842104" y="0" viewBox="0 0.693 100.000413025521 98.61247761341002" enable-background="new 0 0 100 100" xml:space="preserve" id="dxe-0" width="64.60711455822296" height="63.71041324013157" class="icon-dxe-0" data-fill-palette-color="accent"><g fill="#00d1cd" data-fill-palette-color="accent"><path d="M97.926 87.61C96.207 85.599 94.947 83.985 93.934 81.099 91.839 73.308 94.289 64.379 94.289 64.379L94.275 64.388A48.3 48.3 0 0 0 96.766 49.077C96.766 22.354 75.101 0.693 48.383 0.693 21.665 0.694 0 22.355 0 49.078 0 69.758 12.981 87.398 31.232 94.321L31.223 94.322S31.337 94.368 31.545 94.444A48 48 0 0 0 38.973 96.538C48.861 98.769 67.917 101.299 94.449 96.853 101.04 95.723 101.166 91.405 97.926 87.61M65.045 65.791A3.08 3.08 0 0 1 62.796 66.763 3.07 3.07 0 0 1 60.683 65.926L54.2 59.835A13.5 13.5 0 0 1 47.96 61.366C40.473 61.366 34.382 55.275 34.382 47.788S40.473 34.21 47.96 34.21C55.448 34.21 61.539 40.301 61.539 47.788 61.539 50.781 60.555 53.539 58.908 55.786L64.911 61.428A3.087 3.087 0 0 1 65.045 65.791" fill="#ffffff" data-fill-palette-color="accent"></path><path d="M47.96 39.613C43.453 39.613 39.786 43.28 39.786 47.788 39.786 52.294 43.453 55.962 47.96 55.962S56.135 52.294 56.135 47.788C56.136 43.28 52.468 39.613 47.96 39.613" fill="#ffffff" data-fill-palette-color="accent"></path></g></svg></g></svg></g></svg></g><g transform="matrix(1,0,0,1,105.24838626254821,78.75091275620888)"><svg viewBox="0 0 102.8455394015476 39.37303538240131" height="39.37303538240131" width="102.8455394015476"><g transform="matrix(1,0,0,1,0,0)"><svg width="102.8455394015476" viewBox="1.5 -36.75 97.29 37.25" height="39.37303538240131" data-palette-color="#00d1cd"><path d="M7.6 0.5L7.6 0.5Q4.95 0.5 3.23-0.13 1.5-0.75 1.5-2.05L1.5-2.05Q1.5-2.5 1.65-3.13 1.8-3.75 2.2-4.4L2.2-4.4Q3.3-3.75 4.53-3.45 5.75-3.15 7.2-3.15L7.2-3.15Q9.1-3.15 10.18-3.93 11.25-4.7 11.25-6.25L11.25-6.25Q11.25-7.25 10.83-8.2 10.4-9.15 9.25-10.15L9.25-10.15 4.4-14.3Q2.7-15.7 2.13-17.03 1.55-18.35 1.55-19.6L1.55-19.6Q1.55-21.35 2.43-22.68 3.3-24 5.13-24.75 6.95-25.5 9.7-25.5L9.7-25.5Q12.3-25.5 13.63-25 14.95-24.5 15.48-23.88 16-23.25 16-22.7L16-22.7Q16-21.65 15.1-20.65L15.1-20.65Q14-21.35 12.8-21.65 11.6-21.95 10.2-21.95L10.2-21.95Q8.4-21.95 7.33-21.33 6.25-20.7 6.25-19.55L6.25-19.55Q6.25-18.9 6.63-18.2 7-17.5 8.25-16.45L8.25-16.45 12.9-12.7Q14.55-11.15 15.2-9.75 15.85-8.35 15.85-6.45L15.85-6.45Q15.85-3.15 13.65-1.33 11.45 0.5 7.6 0.5ZM26.7 0.5L26.7 0.5Q25 0.5 23.52 0.03 22.05-0.45 20.97-1.7 19.9-2.95 19.32-5.25 18.75-7.55 18.75-11.2L18.75-11.2Q18.75-15.9 19.5-18.75 20.25-21.6 21.5-23.05 22.75-24.5 24.35-25 25.95-25.5 27.6-25.5L27.6-25.5Q30.75-25.5 32.35-23.5 33.95-21.5 33.95-17.45L33.95-17.45Q33.95-15.8 33.82-14.05 33.7-12.3 33.35-10.95L33.35-10.95Q31.65-10.6 29.55-10.45 27.45-10.3 25.55-10.23 23.65-10.15 22.42-10.15 21.2-10.15 21.2-10.15L21.2-10.15 21.25-13.45Q21.25-13.45 22.2-13.43 23.15-13.4 24.52-13.43 25.9-13.45 27.32-13.58 28.75-13.7 29.75-14L29.75-14Q29.9-14.7 29.95-15.5 30-16.3 30-17L30-17Q29.95-19.7 29.37-20.83 28.8-21.95 27.15-21.95L27.15-21.95Q26.3-21.95 25.52-21.48 24.75-21 24.15-19.83 23.55-18.65 23.22-16.6 22.9-14.55 22.9-11.35L22.9-11.35Q22.9-9 23.17-7.45 23.45-5.9 24.02-5.05 24.6-4.2 25.47-3.83 26.35-3.45 27.6-3.45L27.6-3.45Q29.1-3.45 30.57-3.85 32.05-4.25 33.25-5L33.25-5Q33.5-4.4 33.57-3.63 33.65-2.85 33.65-2.25L33.65-2.25Q33.65-1.5 32.7-0.85 31.75-0.2 30.17 0.15 28.6 0.5 26.7 0.5ZM43.85 0.5L43.85 0.5Q42.45 0.5 41.17 0.28 39.9 0.05 38.9-0.73 37.9-1.5 37.3-3 36.7-4.5 36.7-7.1L36.7-7.1Q36.7-9.7 37.25-11.33 37.8-12.95 38.75-13.83 39.7-14.7 40.9-15 42.1-15.3 43.35-15.3L43.35-15.3Q44.15-15.3 45.22-15.15 46.3-15 47.05-14.65L47.05-14.65Q47.05-14.65 47.05-15.35 47.05-16.05 47.05-16.98 47.05-17.9 47.05-18.6L47.05-18.6Q47.05-19.8 46.67-20.43 46.3-21.05 45.62-21.33 44.95-21.6 43.95-21.6L43.95-21.6Q42-21.6 40.2-21.25 38.4-20.9 37.3-20.45L37.3-20.45Q36.95-21.05 36.85-21.68 36.75-22.3 36.75-22.8L36.75-22.8Q36.75-23.15 36.87-23.55 37-23.95 37.3-24.15L37.3-24.15Q37.95-24.55 40-25.03 42.05-25.5 44.9-25.5L44.9-25.5Q48.15-25.5 49.62-24.15 51.1-22.8 51.1-19.4L51.1-19.4 51.1-16.75Q51.1-13.9 51.07-11.03 51.05-8.15 51-5.63 50.95-3.1 50.8-1.2L50.8-1.2Q49.8-0.6 48.05-0.05 46.3 0.5 43.85 0.5ZM44.25-2.9L44.25-2.9Q45.05-2.9 45.8-3.15 46.55-3.4 46.85-3.75L46.85-3.75Q46.95-4.55 46.97-5.95 47-7.35 47.02-8.9 47.05-10.45 47.05-11.8L47.05-11.8Q46.55-12.05 45.87-12.15 45.2-12.25 44.7-12.25L44.7-12.25Q43.9-12.25 43.22-12.08 42.55-11.9 42.05-11.38 41.55-10.85 41.25-9.85 40.95-8.85 40.95-7.2L40.95-7.2Q40.95-5.85 41.17-5 41.4-4.15 41.85-3.68 42.3-3.2 42.9-3.05 43.5-2.9 44.25-2.9ZM55.19 0L55.19 0 55.19-23.25Q56.64-24.3 58.39-24.9 60.14-25.5 61.99-25.5L61.99-25.5Q63.94-25.5 64.72-24.98 65.49-24.45 65.49-23.4L65.49-23.4Q65.49-23 65.39-22.33 65.29-21.65 65.04-21L65.04-21Q64.49-21.3 63.89-21.45 63.29-21.6 62.64-21.6L62.64-21.6Q61.79-21.6 60.92-21.33 60.04-21.05 59.34-20.5L59.34-20.5 59.29-0.8Q59.29-0.4 59.12-0.25 58.94-0.1 58.09-0.05 57.24 0 55.19 0ZM75.09 0.5L75.09 0.5Q73.24 0.5 71.87 0.03 70.49-0.45 69.54-1.78 68.59-3.1 68.12-5.55 67.64-8 67.64-11.95L67.64-11.95Q67.64-16.45 68.44-19.15 69.24-21.85 70.57-23.23 71.89-24.6 73.47-25.05 75.04-25.5 76.59-25.5L76.59-25.5Q78.34-25.5 79.54-24.88 80.74-24.25 80.74-23.25L80.74-23.25Q80.74-22.85 80.67-22.25 80.59-21.65 80.34-21L80.34-21Q79.74-21.35 78.79-21.63 77.84-21.9 76.79-21.9L76.79-21.9Q75.94-21.9 75.07-21.58 74.19-21.25 73.44-20.25 72.69-19.25 72.27-17.25 71.84-15.25 71.84-11.95L71.84-11.95Q71.84-9.3 72.12-7.58 72.39-5.85 72.94-4.88 73.49-3.9 74.34-3.5 75.19-3.1 76.29-3.1L76.29-3.1Q77.49-3.1 78.57-3.48 79.64-3.85 80.29-4.25L80.29-4.25Q80.49-3.6 80.57-3.08 80.64-2.55 80.64-2.05L80.64-2.05Q80.64-1 79.09-0.25 77.54 0.5 75.09 0.5ZM83.94 0L83.94 0 83.94-34.9Q83.94-35.85 84.26-36.23 84.59-36.6 85.46-36.68 86.34-36.75 87.99-36.75L87.99-36.75 87.99-23.55Q89.14-24.55 90.66-25.03 92.19-25.5 93.59-25.5L93.59-25.5Q95.74-25.5 96.86-24.73 97.99-23.95 98.39-22.5 98.79-21.05 98.79-18.9L98.79-18.9 98.79-0.8Q98.79-0.4 98.56-0.25 98.34-0.1 97.46-0.05 96.59 0 94.64 0L94.64 0 94.64-17.8Q94.64-19.45 94.11-20.6 93.59-21.75 91.74-21.75L91.74-21.75Q90.89-21.75 89.89-21.45 88.89-21.15 87.99-20.35L87.99-20.35 87.99-0.8Q87.99-0.4 87.81-0.25 87.64-0.1 86.79-0.05 85.94 0 83.94 0Z" opacity="1" transform="matrix(1,0,0,1,0,0)" fill="#ffffff" class="slogan-text-1" data-fill-palette-color="secondary" id="text-1"></path></svg></g></svg></g></svg></g></svg></g></svg></g><defs></defs></svg><rect width="313.342311926644" height="118.12394813861019" fill="none" stroke="none" visibility="hidden"></rect></g></svg></g></svg>